<?xml version="1.0" encoding="utf-8"?>
<!-- Generator: Adobe Illustrator 23.0.1, SVG Export Plug-In . SVG Version: 6.00 Build 0)  -->
<!DOCTYPE svg PUBLIC "-//W3C//DTD SVG 1.1//EN" "http://www.w3.org/Graphics/SVG/1.1/DTD/svg11.dtd" [
	<!ENTITY ns_extend "http://ns.adobe.com/Extensibility/1.0/">
	<!ENTITY ns_ai "http://ns.adobe.com/AdobeIllustrator/10.0/">
	<!ENTITY ns_graphs "http://ns.adobe.com/Graphs/1.0/">
	<!ENTITY ns_vars "http://ns.adobe.com/Variables/1.0/">
	<!ENTITY ns_imrep "http://ns.adobe.com/ImageReplacement/1.0/">
	<!ENTITY ns_sfw "http://ns.adobe.com/SaveForWeb/1.0/">
	<!ENTITY ns_custom "http://ns.adobe.com/GenericCustomNamespace/1.0/">
	<!ENTITY ns_adobe_xpath "http://ns.adobe.com/XPath/1.0/">
]>
<svg version="1.1" id="Layer_1" xmlns:x="&ns_extend;" xmlns:i="&ns_ai;" xmlns:graph="&ns_graphs;"
	 xmlns="http://www.w3.org/2000/svg" xmlns:xlink="http://www.w3.org/1999/xlink" x="0px" y="0px" viewBox="0 0 348 104"
	 style="enable-background:new 0 0 348 104;" xml:space="preserve">
<style type="text/css">
	.st0{fill-rule:evenodd;clip-rule:evenodd;fill:#50142C;}
	.st1{fill:#231F20;}
	.st2{fill-rule:evenodd;clip-rule:evenodd;fill:#010101;}
	.st3{fill:#7F742E;}
	.st4{fill-rule:evenodd;clip-rule:evenodd;fill:#231F20;}
	.st5{fill-rule:evenodd;clip-rule:evenodd;fill:#7F742E;}
</style>
<metadata>
	<sfw  xmlns="&ns_sfw;">
		<slices></slices>
		<sliceSourceBounds  bottomLeftOrigin="true" height="2560" width="2760.6" x="-2421.6" y="-1693.3"></sliceSourceBounds>
	</sfw>
</metadata>
<g>
	<g>
		<path class="st3" d="M172.4,58.7c-1,0-2-0.2-2.9-0.7c-1.5-0.7-2.6-2-2.9-3.6c-0.3-1.7,0.7-3.6,1.3-4.6c0.8-1.3,1.8-2.4,2.9-3.6
			l0.4-0.4c1.4-1.5,2.9-3.1,4.3-4.8c1.4-1.8,2.8-3.8,1.6-5.1c-0.3-0.4-0.7-0.6-1.2-0.6c-0.5,0-1,0.1-1.6,0.3c-0.2,0-0.3,0.1-0.5,0.1
			c-5.7,2.1-10.4,7.2-14.6,12.4l-0.6,0.8c-2.1,2.5-4.2,5.1-5.9,8c-0.6,0.9-1.4,1.3-2.5,1.3c-0.1,0-0.3,0-0.4,0c-0.1,0-0.2,0-0.3,0
			c-0.2,0-0.5,0-0.7,0c-0.2,0-0.3,0-0.5,0l-0.1,0l-0.1,0c-0.2,0-0.8-0.2-0.9-0.7c-0.2-0.5,0.2-0.9,0.3-1.1c5-6.7,10-13.6,14.8-20.4
			c2.9-4.1,5.9-8.3,8.9-12.4L174,20c0-0.1,0.1-0.1,0.1-0.2c-0.1,0-0.1,0-0.2,0l-6.4,0.1c-0.9,0-1.7,0-2.6-0.1
			c-0.9,0-1.7-0.1-2.6-0.1c-0.6,0.1-1,0.6-1.4,1.2c-0.6,0.9-1.2,1.7-1.8,2.5c-0.3,0.4-0.6,0.9-0.9,1.3L137,54.6
			c-0.2,0.2-0.3,0.5-0.5,0.8c-0.5,0.8-1,1.6-1.9,2.2c-0.8,0.6-1.9,0.7-2.8,0.7c0,0-2.3-0.1-2.6-0.9l-0.1-0.3l0.2-0.2v0l0.3-0.5
			c1-1.6,2.2-3.2,3.4-4.7c0.7-1,1.4-1.9,2.1-2.9l18-25.4c0.8-1.2,1.7-2.4,2.6-3.5c0.1-0.1,0.1-0.1,0.1-0.2c0,0-0.1,0-0.1,0
			c-2.6,0.1-5.4,0.1-8.4,0.1c-3.7,0-7.4-0.1-11.1-0.1l-0.5,0c0,0-0.4,0-0.4,0c-0.3,0-1.1,0-1.4-0.9l0-0.1l0-0.1c0-1,0.6-1.5,1.7-1.5
			c4,0,8.2,0.1,13.1,0.1c4.6,0,9.3,0,13.9,0c4.6,0,9.2,0,13.9,0c0.3,0,1.4,0,1.6,0c0.6,0,1.4,0,2.2,0.2l0.7,0.1l-3.3,4.7
			c-1.9,2.7-3.8,5.4-5.8,8l-0.4,0.6c-0.3,0.5-0.7,0.9-1,1.4c-0.6,0.9-1.3,1.8-1.9,2.6l-0.2,0.2c-0.4,0.6-0.8,1.1-1.2,1.7
			c0,0,0,0,0,0c2.7-2,5.5-3.8,9.1-4c0.2,0,0.3,0,0.5,0c1.8,0,3.3,0.5,4.3,1.4c2.5,2.3,0.8,5.4-0.3,7.2c-0.6,1-1.4,1.9-2.3,2.8
			c-0.3,0.3-0.6,0.7-0.9,1l-3.4,3.8c-0.7,0.8-1.4,1.6-2,2.5c-0.8,1.3-1.1,2.5-0.8,3.3c0.2,0.5,0.6,0.9,1.2,1.1c0.1,0,0.3,0,0.6,0
			c1.2,0,2.4-0.4,3.6-1.2c2.8-1.8,4.8-3.6,6.3-5.5c0.3-0.4,0.5-0.9,0.7-1.4c0.2-0.4,0.3-0.7,0.5-1.1c0.8-1.3,1.7-2.7,2.8-4
			c2.7-3.2,5.1-5.5,7.7-7.1c2.6-1.7,5.2-2.6,7.8-2.8c0.2,0,0.4,0,0.6,0c0.8,0,1.5,0.1,2.1,0.3c1.4,0.6,1.8,1.5,1.9,2.2
			c0.3,2.1-1.9,4.9-3.5,6.2c-3.4,2.8-7.4,4.8-11.6,5.8c-0.4,0.1-0.8,0.1-1.2,0.2c-0.7,0.1-1.5,0.1-1.9,0.4c-0.4,0.2-0.5,0.8-0.7,1.4
			c-0.1,0.2-0.1,0.5-0.2,0.7l-0.1,0.2c-0.3,0.7-0.5,1.4-0.4,2.2c0,0.2,0.1,0.5,0.1,0.7c0.2,1.4,0.4,2.3,1.6,2.8
			c0.5,0.2,1.2,0.3,1.8,0.3c1.3,0,2.9-0.4,4.7-1.1c2.1-0.9,4.2-2.1,6.4-3.8c0.9-0.7,1.9-1.5,2.9-2.4c0.5-0.4,1-0.8,1.4-1.3
			c0,0,1.2-1.1,1.6-1.1h0.4l0.1,0.4c0.2,0.8,0.2,1.5,0.1,2c0,0.3-0.3,0.5-0.8,0.9c-0.1,0-0.1,0.1-0.2,0.1c-0.3,0.3-0.6,0.5-0.9,0.8
			c-0.6,0.5-1.2,1-1.8,1.5c-1.4,1.1-2.6,2-3.8,2.7c-1.9,1.3-4.6,2.8-7.4,3.5c-0.4,0.1-0.7,0.2-1.1,0.2c-1,0.2-2,0.3-2.9,0.3
			c-3.2,0-5.5-1.1-6.8-3.2c-0.3-0.5-0.4-1-0.5-1.5c0-0.2-0.1-0.4-0.1-0.6c-1.2,1.1-2.5,2.2-3.8,3.2c-0.4,0.3-0.7,0.5-1.1,0.8
			c-1.2,0.7-2.7,1.1-3.8,1.2C173.4,58.7,172.9,58.7,172.4,58.7z M202.1,35.5c-1.4,0.1-2.5,0.5-3.5,1.2l-0.1,0.1l-0.1,0
			c-0.2,0-0.4,0.2-0.6,0.4c-0.1,0.1-0.2,0.2-0.4,0.3c-1.8,1.1-3.1,2.6-4.2,3.9c-1,1.1-1.9,2.2-2.7,3.6c2.1-0.4,4.1-0.9,5.9-2l0.1,0
			l0.1,0c0.7-0.2,1.3-0.5,1.8-1.1l0.1-0.1l0.1,0c0.4-0.1,0.7-0.4,1-0.7l0.1-0.1c1.6-1.1,2.6-2.5,3.3-4.2c0.2-0.4,0.2-0.8,0.1-1
			c-0.1-0.1-0.4-0.2-0.8-0.2L202.1,35.5z"/>
		<path class="st3" d="M193.9,57.7c-0.4,0.1-0.7,0.2-1.1,0.2c-3.2,0.5-7.3,0.4-9.1-2.7c-0.5-0.8-0.4-1.7-0.9-2.7
			c-1.4,1.2-2.8,2.5-4.3,3.6c-0.4,0.3-0.7,0.5-1.1,0.7c-1.1,0.6-2.4,1-3.6,1.2c-1.4,0.3-2.7,0.2-4.1-0.5c-1.3-0.6-2.3-1.8-2.6-3.3
			c-0.3-1.4,0.5-3.1,1.3-4.2c0.8-1.3,1.8-2.4,2.9-3.5c1.6-1.7,3.2-3.4,4.7-5.3c1.1-1.4,3.1-4,1.6-5.7c-1-1.2-2.5-0.6-3.8-0.3
			c0,0-0.1,0-0.1,0c-6,2.2-10.8,7.7-14.8,12.5c-2.3,2.8-4.7,5.7-6.6,8.8c-0.6,0.9-1.4,1.2-2.5,1.1c-0.5-0.1-1.1,0-1.6,0.1
			c-0.6-0.2-0.8-0.4-0.4-1c8.1-10.8,15.8-21.8,23.7-32.7c0.9-1.3,1.9-2.5,2.8-3.8c0.6-0.8,0.3-1-0.6-1c-2,0-4,0-6,0.1
			c-1.8,0-3.7-0.1-5.5-0.1c-0.9,0.1-1.3,0.7-1.8,1.4c-0.8,1.3-1.8,2.5-2.7,3.8c-2,2.8-4,5.6-6,8.5c-3.3,4.7-6.7,9.5-10.1,14.2
			c-1.7,2.4-3.4,4.8-5.2,7.3c-0.7,1-1.3,2.1-2.3,2.9c-0.7,0.5-1.6,0.6-2.5,0.6c-0.1,0-2.4-0.3-2.1-0.6l0.1-0.1c0,0,0-0.1,0-0.1
			c0.1-0.1,0.2-0.3,0.2-0.4c1.7-2.6,3.7-5,5.5-7.5c2-2.8,4-5.6,6-8.5c4-5.6,8-11.3,12-16.9c0.8-1.2,1.7-2.4,2.6-3.5
			c0.5-0.6,0.5-1-0.5-1c-6.6,0.2-13.3,0.1-19.9,0c-0.5,0-1.1,0.1-1.3-0.6c0-0.8,0.4-1.1,1.2-1c13.6,0.2,27.2,0,40.8,0
			c1.2,0,2.5-0.1,3.7,0.2c-0.9,1.4-1.9,2.7-2.8,4.1c-2,2.9-4.1,5.7-6.2,8.5c-1,1.3-1.9,2.7-2.9,4c-0.5,0.6-1,1.3-1.4,1.9
			c-0.3,0.5-0.8,1.8-1.3,2.1c3.3-2.4,6.5-5.1,10.8-5.3c1.6-0.1,3.3,0.2,4.4,1.3c2.1,2,0.8,4.5-0.4,6.6c-0.8,1.3-2.1,2.5-3.1,3.7
			c-1.1,1.3-2.3,2.5-3.4,3.8c-0.7,0.8-1.5,1.6-2,2.6c-1.1,1.8-1.7,4.3,0.7,5.2c1.6,0.2,3.2-0.3,4.5-1.2c2.3-1.5,4.7-3.4,6.4-5.6
			c0.6-0.7,0.8-1.8,1.3-2.6c0.8-1.4,1.8-2.7,2.8-4c2.2-2.7,4.6-5.1,7.5-7c2.3-1.5,4.9-2.5,7.6-2.7c0.8,0,1.7,0,2.4,0.3
			c3.8,1.5,0.2,6-1.6,7.5c-3.3,2.7-7.3,4.7-11.4,5.7c-0.9,0.2-2.5,0.1-3.3,0.6c-0.7,0.5-0.8,1.6-1.1,2.3c-0.3,0.8-0.7,1.7-0.5,2.6
			c0.3,1.6,0.2,3.2,2,3.9c2.2,0.8,4.9,0,6.9-0.9c2.3-1,4.5-2.3,6.5-3.8c1-0.8,2-1.6,3-2.4c0.5-0.4,1-0.8,1.4-1.3
			c0.1-0.1,1.3-1,1.3-0.9c0.2,0.6,0.2,1.2,0.1,1.8c0,0.2-0.7,0.6-0.8,0.7c-0.3,0.3-0.6,0.5-0.9,0.8c-0.6,0.5-1.2,1-1.8,1.5
			c-1.2,1-2.5,1.9-3.8,2.7C199,55.7,196.6,57.1,193.9,57.7z M198.7,42.1c0.6-0.2,0.9-0.6,1.4-0.9c1.6-1.1,2.7-2.6,3.4-4.4
			c0.5-1.3,0-1.9-1.4-1.9c-1.4,0.1-2.6,0.4-3.7,1.3c-0.5,0.1-0.8,0.5-1.2,0.8c-1.7,1-3.1,2.5-4.3,4c-1.3,1.3-2.3,2.8-3.3,4.6
			c2.6-0.5,5-0.9,7.1-2.3C197.5,43.1,198.2,42.8,198.7,42.1z"/>
		<path class="st3" d="M319.9,58.7c-0.3,0-0.5,0-0.8,0c-2.3-0.2-5-2.6-4.8-5.2c0.2-2.4,2.2-4.6,3.3-5.8c1.9-2,3.3-3.7,4.6-5.2
			l0.4-0.5c1.2-1.4,2.4-2.8,2.7-4.6c0.1-0.7,0-1.1-0.3-1.4c-0.2-0.3-0.7-0.4-1.3-0.4c-1.5,0-3.6,0.9-4.7,1.5
			c-1.9,1.1-3.6,2.6-5.3,4.1c-3,2.7-5.7,5.7-8.2,8.6c-0.5,0.6-1,1.3-1.5,1.9c-0.7,0.9-1.4,1.9-2.3,2.8c-1,1-1.8,2.1-2.4,3.1
			l-0.1,0.1l-0.1,0.1c-0.9,0.3-1.7,0.5-2.4,0.5c-0.8,0-1.5-0.2-2.2-0.5l-0.6-0.3l0.5-0.5c0.4-0.4,0.7-0.8,0.9-1.3
			c-0.2,0.1-0.5,0.3-0.7,0.5c-0.2,0.1-0.3,0.2-0.5,0.4l-0.4,0.2c-0.2,0.1-0.4,0.2-0.6,0.2c-2.8,1.3-5.3,1.8-7.6,1.8
			c-1.4,0-2.7-0.2-4-0.6l-0.1,0l-0.1,0c-2.1-1.3-2.4-1.6-3.3-4c-0.3,0.2-0.5,0.4-0.8,0.7c-0.9,1-2.8,1.9-4,2.5
			c-1.4,0.7-3,1.1-4.9,1.4c-0.4,0-0.8,0.1-1.2,0.1c-1,0-2-0.2-2.9-0.5c-1-0.4-1.9-1.1-2.4-2c-0.3-0.5-0.5-1-0.5-1.6
			c0-0.4,0-0.7,0.1-0.9c-2.7,2.3-5.3,4.4-9,4.9c-0.4,0.1-0.8,0.1-1.2,0.1c-3,0-5.3-1.7-5.8-4.2c0-1.4,0.3-2.6,0.7-3.8
			c1.4-3.9,4.8-7.4,8.2-10.5c5.3-4.9,10.7-7.4,16-7.4c0.2,0,0.4,0,0.7,0l0.8,0.2l0.7,0.2c0.4,0.1,0.7,0.3,1.1,0.6
			c0.3,0.2,0.6,0.4,0.7,0.4c0.1,0,0.3-0.2,0.5-0.9l0-0.1l0.1-0.1c0.9-0.7,1.6-1.8,2.3-2.9c0.3-0.5,0.6-0.9,0.9-1.3l0.9-1.2
			c1.5-2,3-4.1,4.5-6.2c0.2-0.2,0.3-0.4,0.5-0.7c1.1-1.6,2.4-3.6,4.6-3.6c0.2,0,0.5,0,0.7,0.1c0.8,0.1,1.3,0.2,1.5,0.6
			c0.2,0.4,0,0.9-0.6,1.8c-0.5,0.8-1.1,1.5-1.7,2.2c-0.4,0.4-0.7,0.9-1,1.3c-0.4,0.6-0.9,1.2-1.3,1.9c-0.4,0.6-0.9,1.3-1.3,1.9
			c-0.9,1.2-1.7,2.4-2.6,3.6c-0.9,1.3-1.9,2.5-2.8,3.8c-1.5,2-3,4-4.4,6l-2.2,3c-0.6,0.8-1.2,1.6-1.8,2.4c-1.6,2.1-3.3,4.2-4.3,6.5
			l0,0.1c0,0-0.1,0.1-0.2,0.2c0,0-0.1,0.1-0.1,0.1l-0.1,0.1c-0.5,1.2-0.8,2-0.3,2.7c0.3,0.4,0.9,0.7,1.6,0.7c0.2,0,0.5,0,0.8-0.1
			c3.5-0.6,6.3-2.7,9.1-5c0.1-0.1,0.2-0.3,0.3-0.5c0.5-1.8,1.5-3.5,2.4-5l0.1-0.1l3.5-4.4c4-4,7.5-6.4,11.4-7.8l0.1,0l0.1,0
			c0.3,0,0.6-0.1,0.9-0.1c0.7-0.1,1.5-0.2,2.2-0.2c1.4,0,2.5,0.4,3.5,1.3l0.2,0.2l0,0c0.8,0.8,0.3,2.6,0.2,3c-0.3,1-0.8,1.7-1.4,2.3
			c-1.2,1.3-2.6,2.5-4.2,3.6c-2.2,1.5-6.6,4.1-11.4,4.4c-0.8,0-1.3,0.3-1.5,0.7c-0.1,0.2-0.2,0.6-0.3,0.9c0,0.2-0.1,0.3-0.1,0.5
			c-0.1,0.3-0.2,0.6-0.2,0.9c-0.3,1.1-0.6,2.2-0.4,3.2c0.4,1.6,1.5,2.4,3.2,2.4l0.2,0c1,0,2-0.3,2.8-0.5c3.2-1,6.3-2.6,8.9-4.8
			c2.6-2.1,4.8-4.8,6.6-7.4c0.8-1,1.5-2.1,2.3-3.1c1.3-1.6,2.6-3.3,3.7-5.1c0.8-1.2,1.7-1.8,2.9-1.8c0.2,0,0.3,0,0.5,0l0.1,0l0.1,0
			c0,0,0.1,0,0.1,0c0.1,0,0.2,0,0.4,0c0.2,0,0.3-0.1,0.5-0.1c0.6,0,1,0.3,1.2,0.9l0.1,0.3l-0.2,0.2c-0.4,0.5-0.9,0.9-1.2,1.4
			c1.1-0.6,2.1-1.2,2.9-2c0.4-0.4,1.4-0.7,2.4-0.9c0.2,0,0.4-0.1,0.6-0.1c1.2-0.3,2.3-0.5,3.3-0.5l0.2,0c2.2,0,3.8,0.9,4.8,2.5
			c0.7,1.1,0.5,2.2,0.3,3.2l-0.1,0.5l-0.3,0.5c-0.8,1.3-1.6,2.6-2.8,3.9l-4.1,4.6c-0.2,0.2-0.4,0.5-0.7,0.8
			c-1.3,1.4-3.1,3.3-2.8,4.9l0,0l0,0.1c0,0.8,0.1,1.3,0.4,1.7c0.3,0.3,0.7,0.5,1.3,0.5c0.8,0,1.7-0.3,2.7-0.7
			c2.3-1.1,4.3-2.9,5.7-4.3l0.7-0.7c0.5-0.5,1.1-1.1,1.7-1.6l0.2-0.2c0.3-0.3,0.7-0.6,1-0.9l0.5-0.5c0.7-0.7,1.4-1.5,2.1-2.2
			c0.2-0.2,0.4-0.3,0.7-0.4c0.1,0,0.2-0.1,0.4-0.1c0.3,0,0.5,0.1,0.7,0.3c0.3,0.4,0.3,0.8,0.2,1c-0.2,1.6-1.4,2.6-2.5,3.4
			c-0.4,0.3-0.7,0.6-1,0.9c-1,1-2,1.9-2.8,2.6l-0.3,0.2C327.8,55.7,324.5,58.7,319.9,58.7z M269.1,35.4c-1.9,0-3.7,0.5-5.4,1.6
			c-2.2,1.2-4.1,2.7-5.8,4.5c-0.8,0.6-1.5,1.4-2,2.2c-0.2,0.3-0.4,0.5-0.6,0.7c-0.4,0.5-0.8,1-1.1,1.5c-0.2,0.3-0.4,0.7-0.6,1
			c-0.5,0.8-1.1,1.7-1.5,2.6c-0.3,0.7-0.6,1.3-0.7,1.9l-0.1,0.5c-0.3,1.2-0.7,2.7,0.1,3.5c0.3,0.3,0.7,0.5,1.1,0.5l0,0
			c0.5,0,1-0.2,1.5-0.3c1.9-0.6,3.6-1.7,5.4-3.5c1.3-0.8,2.3-1.9,3.3-3l0.2-0.2c0.4-0.5,0.9-0.9,1.3-1.4c0.9-1,1.9-2,2.8-3.1
			c0.6-0.7,1.2-1.5,1.7-2.2l0.8-1c0.1-0.2,0.3-0.4,0.4-0.6c0.6-0.8,1.2-1.5,1.6-2.4c0.3-0.8,0-1.8-0.8-2.5c-0.3-0.4-0.7-0.4-1.2-0.4
			L269.1,35.4z M297.9,35.4c-0.1,0-0.2,0-0.3,0c-0.8,0.1-1.6,0.3-2.5,0.7c-1.3,0.6-2.7,1.5-4.1,2.8c-0.7,0.6-1.3,1.3-2,2.1
			c-0.3,0.4-0.6,0.7-0.9,1.1l-0.1,0.1c-0.2,0.2-0.3,0.4-0.5,0.5c-0.6,0.7-1.1,1.6-1.6,2.3c0,0,0.1,0,0.2,0c0.1,0,0.3,0,0.3,0
			c0.5-0.1,1-0.2,1.5-0.4c2.4-0.6,4.5-1.6,6.4-3c1.1-0.8,2.1-1.6,2.9-2.5c0.4-0.5,0.8-1.1,1.1-1.7l0.1-0.2c0.2-0.3,0.5-1,0.1-1.5
			C298.4,35.5,298.3,35.4,297.9,35.4z"/>
		<path class="st3" d="M264.6,57.7c-0.9-0.3-1.7-1-2.1-1.8c-0.2-0.4-0.4-0.9-0.4-1.4c0-0.5,0.2-1,0.2-1.4c0,0-0.1-0.5-0.1-0.5
			c-2.9,2.5-5.6,4.9-9.5,5.5c-2.8,0.4-5.8-0.8-6.4-3.7c0-1.2,0.3-2.4,0.7-3.5c1.4-4,5-7.5,8.1-10.4c4.5-4.2,10-7.5,16.3-7.2
			c0.5,0.1,1,0.2,1.5,0.3c1,0.2,2.1,2.2,2.9-0.2c1.3-1.1,2.3-3,3.3-4.4c1.8-2.5,3.6-5,5.4-7.5c1.3-1.8,2.6-4.5,5.3-4
			c1.5,0.2,1.5,0.2,0.6,1.7c-0.7,1.2-1.8,2.3-2.7,3.5c-0.9,1.2-1.7,2.5-2.6,3.7c-1.8,2.5-3.6,4.9-5.4,7.4c-2.2,3-4.4,6-6.6,9.1
			c-2.1,2.9-4.8,5.7-6.2,9c-0.1,0.1-0.2,0.2-0.3,0.3c-0.5,1.1-1.1,2.3-0.3,3.4c0.7,0.9,1.8,0.9,2.8,0.8c3.7-0.6,6.6-2.8,9.4-5.1
			c0.2-0.2,0.4-0.5,0.4-0.7c0.5-1.8,1.5-3.4,2.4-5.1c1.1-1.5,2.3-2.9,3.4-4.4c3.2-3.3,6.7-6.1,11.2-7.6c2.1-0.2,4.3-0.9,6.2,0.8
			c0,0.1,0,0.1,0.1,0.1c0,0,0,0,0,0c0.6,0.4,0.2,2,0.1,2.6c-0.3,0.9-0.7,1.5-1.3,2.1c-1.2,1.3-2.6,2.5-4.1,3.5
			c-3.1,2.2-7.2,4.1-11.1,4.3c-0.7,0-1.5,0.2-1.9,0.9c-0.3,0.5-0.3,1-0.4,1.5c-0.4,1.4-1,2.9-0.6,4.3c0.5,1.8,1.8,2.7,3.6,2.8
			c1.1,0,2.2-0.2,3.2-0.5c3.3-1,6.4-2.7,9.1-4.9c2.6-2.1,4.8-4.8,6.7-7.5c2-2.7,4.2-5.4,6.1-8.2c0.7-1.1,1.6-1.7,2.9-1.5
			c0.6,0.3,1.6-0.5,2,0.6c-0.8,0.9-1.6,1.7-1.9,2.9c1.5-0.9,3.1-1.6,4.3-2.8c0.5-0.5,2.1-0.7,2.8-0.8c1.1-0.3,2.1-0.5,3.2-0.5
			c1.9,0,3.6,0.5,4.6,2.2c0.7,1.1,0.3,2.2,0.1,3.4c-1,1.5-1.8,2.9-3,4.2c-1.4,1.5-2.7,3.1-4.1,4.6c-1.3,1.5-4,3.9-3.7,6.1
			c-0.2,3.4,2.9,3,5.1,1.9c2.2-1.1,4.1-2.7,5.8-4.4c0.8-0.8,1.6-1.5,2.4-2.3c0.4-0.4,0.8-0.7,1.2-1.1c0.8-0.9,1.7-1.8,2.6-2.7
			c0.1-0.1,0.3-0.3,0.5-0.3c0.2-0.1,0.4,0,0.6,0.1c0.1,0.2,0.1,0.4,0.1,0.6c-0.3,1.9-2.1,2.8-3.4,4.1c-0.9,0.9-1.8,1.7-2.8,2.6
			c-3.4,3-6.9,6.3-11.8,6c-2.1-0.2-4.5-2.4-4.3-4.6c0.1-2.1,1.8-4.1,3.2-5.5c1.6-1.7,3.1-3.4,4.6-5.2c1.3-1.6,3-3.2,3.2-5.4
			c0.5-4.2-5.1-1.9-7-0.9c-2,1.1-3.7,2.7-5.4,4.2c-3,2.7-5.6,5.7-8.2,8.7c-1.3,1.5-2.4,3.2-3.7,4.7c-1,1-1.7,2.1-2.5,3.2
			c-1.4,0.6-2.8,0.7-4.2,0c0.6-0.6,1-1.4,1.4-2.2c-1-0.2-1.6,0.5-2.3,1c-0.3,0.1-0.6,0.2-0.9,0.4c-3.6,1.6-7.3,2.5-11.2,1.2
			c-2.1-1.4-2.2-1.5-3.3-4.3c-0.6,0.2-1,0.6-1.4,1.1c-0.9,1-2.7,1.8-3.8,2.4c-1.5,0.7-3.1,1.1-4.8,1.3
			C267.2,58.2,265.8,58.2,264.6,57.7z M269,42.7c0.3-0.3,0.5-0.7,0.8-1c0.7-1,1.6-1.9,2.1-3.1c0.4-1,0.1-2.2-0.9-3.1
			c-0.4-0.6-1.1-0.6-1.7-0.6c-2.1,0-4.1,0.6-5.9,1.7c-2.2,1.2-4.2,2.7-5.9,4.6c-0.8,0.6-1.5,1.4-2.1,2.3c-0.6,0.7-1.3,1.4-1.8,2.2
			c-0.7,1.2-1.5,2.4-2.2,3.7c-0.3,0.6-0.6,1.3-0.8,2c-0.3,1.4-1,3.3,0.1,4.5c0.9,0.9,2,0.6,3.1,0.3c2.2-0.7,4-2,5.6-3.6
			c1.4-0.9,2.4-2,3.5-3.2c1.4-1.5,2.9-2.9,4.2-4.5C267.9,44.2,268.4,43.5,269,42.7z M294.9,35.6c-1.6,0.7-3,1.7-4.3,2.9
			c-1.1,1-1.9,2.1-2.9,3.2c-0.2,0.2-0.4,0.5-0.6,0.7c-0.9,1-1.5,2.2-2.2,3.4c0.1-0.2,1.3-0.3,1.6-0.3c0.5-0.1,1-0.2,1.6-0.4
			c2.4-0.6,4.6-1.6,6.5-3.1c1-0.8,2.2-1.6,3-2.6c0.5-0.6,0.9-1.3,1.3-1.9c0.4-0.6,0.5-1.4,0.1-2.1c-0.3-0.5-0.9-0.5-1.4-0.5
			C296.6,34.9,295.7,35.2,294.9,35.6z"/>
		<path class="st3" d="M235.6,58.2c-1.7-0.1-3.4-0.1-5.6-0.1c-1.6,0-3.1,0-4.7,0c-1.5,0-3,0-4.5,0c-5.1,0-10.1,0-15.2,0l-0.5,0
			c-0.5,0-1-0.1-1.5-0.5l-0.2-0.2l0.1-1.1l0.5-0.5l0.2,0c1.3,0,2.6-0.1,3.8-0.6c1.8-0.5,3.1-2.5,4.2-4.2c0.3-0.5,0.6-1,0.9-1.4
			l6.3-8.9c1.6-2.2,3.1-4.4,4.7-6.5l2.4-3.3c0.7-1,1.4-1.9,2.1-2.9c1.6-2.1,3.2-4.3,4.5-6.6c0.1-0.2,0.3-0.3,0.4-0.5
			c0.5-0.5,0.5-0.7,0.2-1.1c-0.2-0.3-0.6-0.3-1.1-0.3l-0.6,0c-0.4,0-0.9,0-1.2-0.2c-1.1-0.5-1.1-1.1-1-1.4c0.1-0.5,0.7-0.9,1.5-0.9
			c2.9-0.1,6.1-0.1,9.7-0.1c3.2,0,6.4,0,9.5,0.1c2.5,0,5.1,0,7.6,0.1c0.2,0,0.8,0,1.1,0.5c0.3,0.4,0.1,0.9-0.1,1.2
			c-0.4,0.8-0.7,1.6-1.1,2.5c-0.6,1.5-1.3,3-2.1,4.4c-0.4,0.6-0.8,1.4-1.1,2.4c-0.3,0.7-0.8,1.4-1.6,1.4c-0.2,0-0.4-0.1-0.6-0.2
			c-0.3-0.1-0.4-0.3-0.5-0.6c-0.1-0.3,0-0.7,0.2-0.9c0.1-0.1,0.1-0.3,0.2-0.5c0-0.1,0.1-0.3,0.1-0.4c0.1-0.3,0.3-0.6,0.4-0.9
			c0.2-0.3,0.3-0.6,0.4-1c0.3-0.7,0.4-1.4,0.5-2.1c0-0.7,0-2.4-1.4-2.9c-0.6-0.2-1.3-0.3-2.2-0.3c-0.4,0-0.9,0-1.3,0
			c-1.4-0.1-2.9-0.1-4.3-0.1c-1.3,0-2.6,0-4,0.1l-0.1,0l-0.1,0c0,0,0,0,0,0c-0.1,0-0.1,0-0.2,0.2c-1.8,2.7-3.8,5.4-5.7,8l-0.3,0.4
			c-0.1,0.1-0.3,0.5-0.7,1c-2.2,3.3-3.3,4.9-4,5.8l5.2,0c1,0,2-0.1,3-0.1c0.8,0,1.6-0.1,2.4-0.1l0.3,0c0.2,0,0.5,0,0.8,0
			c1.3,0,2.2,0.2,2.6,0.7c0.2,0.3,0.4,0.6,0.3,1c-0.1,1-0.9,1-1.3,1l-0.1,0c-1.6,0.1-3.3,0.1-5.2,0.1c-2,0-4.1,0-6.1-0.1
			c-1.1,0-2.3,0-3.4-0.1c-1,0-2.8,3-3.6,4.4c-0.3,0.5-0.6,1-0.8,1.3c-1,1.5-2.1,3-3.2,4.4c-1.5,2-3,4-4.3,6.1l0,0l0,0
			c-0.3,0.4-0.6,0.7-0.7,1.1c0,0.3,0,0.4,0,0.5c0,0.1,0.2,0.1,0.2,0.1c0.9,0,1.9,0,2.8,0.1c1.3,0,2.5,0.1,3.8,0.1
			c2.5,0,4.5-0.1,6.3-0.4c2.6-0.4,5-1.2,7-2.2c1.4-0.7,2.8-1.6,4.2-2.7l0.1-0.1c1.2-1,2.6-2.2,3.6-3.4c0.6-0.8,1.4-1.2,2.2-1.2
			c0.3,0,0.5,0,0.8,0.1l0.3,0.1l0.1,0.1l1.2,1.2l-1.4-0.3c-0.2,0.4-0.7,1-1.6,2.2l-0.1,0.2l-0.5,0.7c-1.3,1.7-2.6,3.4-4.1,5
			c-0.1,0.1-0.3,0.3-0.4,0.4c-0.4,0.4-0.7,0.7-1,1.1c0,0.1-0.1,0.1-0.1,0.2c-0.1,0.1-0.1,0.3-0.2,0.4c-0.7,0.8-1.6,1.2-2.8,1.2
			C235.8,58.2,235.7,58.2,235.6,58.2z"/>
		<path class="st3" d="M233.7,21.7c0.5-0.6,1.3-1.1,0.6-2.1c-0.7-0.9-2.3-0.2-3.2-0.6c-1.2-0.5-0.9-1.3,0.3-1.3
			c8.9-0.2,17.9,0,26.8,0c0.8,0,0.9,0.3,0.6,1c-1.1,2.2-1.9,4.7-3.2,6.8c-0.5,0.8-0.9,1.6-1.2,2.5c-0.2,0.6-0.8,1.4-1.6,1
			c-0.4-0.2-0.3-0.5-0.1-0.8c0.2-0.3,0.2-0.6,0.3-0.9c0.2-0.7,0.6-1.2,0.8-1.9c0.3-0.7,0.4-1.5,0.5-2.3c0.1-1.4-0.3-2.9-1.8-3.4
			c-1.2-0.4-2.5-0.3-3.7-0.3c-2.7-0.1-5.5-0.1-8.2,0c-0.4-0.1-0.6,0.1-0.8,0.4c-1.9,2.8-3.9,5.6-6,8.4c-0.5,0.7-4.9,7.6-5.4,7.4
			c0.3,0.1,0.4,0.2,0.5,0.2c1.9,0,3.8,0,5.7,0c1.8,0,3.6-0.2,5.5-0.2c0.8,0,3.7-0.3,3.5,1.1c-0.1,0.6-0.5,0.6-0.9,0.6
			c-4.9,0.2-9.8,0-14.7,0c-1.7,0-4,4.7-4.8,5.9c-2.4,3.6-5.2,6.9-7.4,10.6c-0.4,0.4-0.7,0.8-0.8,1.3c-0.1,0.6,0,1.1,0.7,1.1
			c4.3,0,8.7,0.4,13-0.3c2.5-0.4,4.9-1.1,7.2-2.2c1.5-0.8,2.9-1.7,4.3-2.8c1.3-1.1,2.7-2.2,3.8-3.6c0.7-0.9,1.5-1.1,2.5-0.9
			c0,0,0,0,0,0c0.1,0.1-1.7,2.5-1.9,2.6c-1.4,1.9-2.9,3.9-4.5,5.6c-0.5,0.5-1,1-1.4,1.6c-0.1,0.2-0.2,0.4-0.3,0.5
			c-0.7,0.9-1.6,1.1-2.7,1c-4.9-0.3-9.9,0-14.8,0c-5.1,0-10.1,0-15.2,0c-0.6,0-1.2,0.1-1.6-0.4c0-0.2,0-0.4,0.1-0.7
			c0.1-0.1,0.2-0.2,0.2-0.2c1.4,0,2.7-0.1,4-0.6c2.5-0.7,3.9-3.8,5.3-5.8c2.1-3,4.2-5.9,6.3-8.9c2.4-3.3,4.7-6.6,7-9.9
			C229.2,28.1,231.8,25.1,233.7,21.7z"/>
	</g>
	<g>
		<rect x="127.8" y="70.2" class="st4" width="211.3" height="0.7"/>
		<g>
			<path class="st1" d="M182.2,92v-8.2l-4.1,6.7h-1.5l-4.1-6.5V92h-3.1V78.4h2.7l5.3,8.5l5.2-8.5h2.6v13.6h-3.1V92z"/>
			<path class="st1" d="M195.4,86v-7.6h3.3v7.5c0,2.5,1.2,3.7,3.2,3.7c2,0,3.2-1,3.2-3.7v-7.5h3.2V86c0,4-2.3,6.2-6.3,6.2
				C197.7,92.2,195.4,90,195.4,86z"/>
			<path class="st1" d="M218.4,78.4h3.3v11h7.1v2.5h-10.3V78.4z"/>
			<path class="st1" d="M237.2,86v-7.6h3.3v7.5c0,2.5,1.2,3.7,3.2,3.7c2,0,3.2-1,3.2-3.7v-7.5h3.2V86c0,4-2.3,6.2-6.3,6.2
				C239.5,92.2,237.2,90,237.2,86z"/>
			<path class="st1" d="M273,78.4v13.6h-2.6l-7.1-8.3v8.3h-3.2V78.4h2.7l7,8.3v-8.3H273z"/>
			<path class="st1" d="M283.4,78.4h6.4c4.6,0,7.8,2.6,7.8,6.8c0,4.1-3.2,6.8-7.8,6.8h-6.4V78.4z M289.6,89.4c2.7,0,4.6-1.6,4.6-4.2
				c0-2.6-1.8-4.2-4.6-4.2h-2.9v8.5h2.9V89.4z"/>
		</g>
	</g>
</g>
<g>
	<g>
		<g>
			<path class="st5" d="M66,17.3c0.1-0.1,0.1-0.2,0.1-0.3C66,17,66,17,66,17l0,0c-0.6,1.1-1.5,1.4-2.4,1.5c-0.5,0-0.6,0.2-1.6,0.9
				c-1.6,1.1-3.5,0.1-3.5,0.1c2,0.5,3.7-0.4,4.7-2.3l0,0c0,0,0,0-0.1,0c-0.5,0.3-1.8,1.2-4.7,0.1c-1.1-0.5-2.2-0.8-2.8-0.4
				c-0.5,0.3-0.9,0.8-1.1,1.4l0,0c0,0,0,0,0.1,0c0.5-0.2,1-0.5,1.7,0.4c0.3,0.4,0.5,0.8,0.9,1.2c0.9,0.9,2,1.4,3.3,1.3
				C63.6,20.8,65.7,18.2,66,17.3L66,17.3z"/>
			<path class="st5" d="M39.6,31.8c0.7-0.1,2.2-0.5,2.9-0.5c5.6,0.2,6.1-3.9,6.1-5c0.1-1,0.6-1.9,1.2-2.2c0.1,0,0.1-0.1-0.1-0.1
				c-0.5,0-0.9,0.1-1.4,0.2c-0.6,0.2-1.4,0.8-2.2,2.3s-3.3,2.9-4.2,3l0,0l0,0c2,0.3,4-0.3,5.4-1.7c0,0-0.5,1.8-3,2.3
				c0,0-1.9,0.1-3.2,0.9c-0.6,0.3-1.3,0.6-2,0.8C39.4,31.6,39.2,31.8,39.6,31.8L39.6,31.8z"/>
			<path class="st5" d="M54.9,43.1c0,0-0.6-2.6-2-2.2c0,0-0.1-1.2-1-1.6c-0.4-0.3-0.6-0.7-0.8-1.2c-0.1-0.3-0.5-0.5-0.8-0.4
				c-0.6,0.2-0.2,1-0.2,1c0.2,0.3,0.3,0.6,0.3,1c-0.3,0.5-0.4,1.1-0.3,1.7c0,0-1.5,0.7-0.6,2.8c0.8-0.6,1.2-1.3,1.2-1.8
				c0.6,0.6,0.8,1.6,0.4,2.3c-0.7,1.3-2,2.2-4.1,0.8c-2-1.4-2.8-2.5-4.4-2.8c-1.7-0.3-3.1,0.2-4.2-0.4c0,0-0.3,0.7,1,1
				c0,0-0.7,0.4,0.2,0.5c0.9,0.1,1.1-0.2,1.1-0.2s-1.2,1.3,0,4.4c1.2,3.1,5.7,6,7,6.1l0,0c0,0,0,0,0-0.1c-0.3-0.2-2.3-2.1-2.8-3.7
				c1.5,0.9,3.3,1,5,0.5c0.1,0.3,0.1,0.8-0.1,1.1c-0.3,1-1,2.9-0.1,3.1l0,0c0.1-0.6,0.4-1.2,0.7-1.7c-0.1,0.3-0.2,0.5-0.3,0.9
				c-0.2,0.3-0.1,0.7,0.2,0.9h0.1c2.8-3.7,3.8-8.5,2.9-13.1C53.1,42.1,54.1,43.2,54.9,43.1L54.9,43.1z M44.4,44.3L44.4,44.3
				c0.3-0.3,0.8,0.1,0.8,0.1c0.3,0.3,0.5,0.6,0.3,0.8c-0.2,0.2-0.5,0.1-0.8-0.1C44.4,45,44.1,44.6,44.4,44.3L44.4,44.3L44.4,44.3z
				 M46.1,46.5L46.1,46.5c-0.3,0.3-0.8,0.1-0.8,0.1s-0.8-0.3-0.5-0.7c0.2-0.2,0.5-0.3,0.8-0.1C45.7,45.7,46.5,46.2,46.1,46.5
				L46.1,46.5z M48.3,48L48.3,48c-0.1,0.3-0.6,0.4-1.1,0.3c-0.4-0.1-1.1-0.5-0.8-1c0.2-0.5,1.1-0.3,1.1-0.3
				C48,47.1,48.4,47.6,48.3,48L48.3,48L48.3,48z M49,48.5L49,48.5c0,0-0.5,0.1-0.4-0.2c0.1-0.2,0.2-0.3,0.4-0.3c0,0,0.5,0.1,0.4,0.3
				C49.3,48.4,49,48.5,49,48.5L49,48.5L49,48.5z M49.9,47.7L49.9,47.7c-0.3,0.2-0.9,0.2-0.9-0.3c-0.1-0.4,0.6-0.6,0.6-0.6
				c0.4-0.1,0.8-0.1,0.9,0.2C50.5,47.3,50.2,47.5,49.9,47.7L49.9,47.7z M51.2,46.2L51.2,46.2c0,0-0.2,0.4-0.4,0.2
				c-0.1-0.1-0.1-0.3,0.1-0.4c0,0,0.3-0.3,0.4-0.2C51.4,46,51.2,46.2,51.2,46.2L51.2,46.2z"/>
			<path class="st5" d="M80,31.2c0,0-5.2,1.7-5.6,10.7c-0.1,2-0.6,2.4-1.3,3.2c-0.3,2.3-1.7,5-3.3,6.4c-1.5,1.3-5.3,3.2-6.6,0.4
				c-0.4-0.8-0.4-1.7-0.1-2.6c-0.3-0.3-0.7-1.2,0.3-2.8c0,0,1.6,0.4,2.4-1.7c0,0,1.5-0.3,1.9-1.4l0,0l0,0c-0.2,0.1-1.2,0.8-1.8,0.6
				c-0.5-0.2-1.2-0.3-1.7-0.1c-0.4-0.1-1-0.4-1.3-1.5l0,0l0,0c-0.1,0.1-0.4,0.5-0.3,1.7l0,0c0,0,0.3,0.1,1,0c-0.4,0.2-0.8,0.5-1,0.9
				c-1.2,1.5-1.6,2.9-1.6,3.5c-0.2,1.1,0.1,2.2,0.5,3.2c-0.1,0.5-0.1,2.2,1.3,4c0.1,0.1,0.1,0.1,0.1-0.1c-0.3-0.8-0.3-1.7-0.3-2.5
				c1.1,1,2.3,1.8,3.7,2.4c0.1,0.1,0.2,0.1,0.1-0.1c-0.4-0.4-0.7-0.9-0.9-1.4C71.9,53.9,82.4,44.1,80,31.2L80,31.2z"/>
			<path class="st5" d="M64.1,52.2c2,1.4,6.9-0.7,8.2-6.7c0-0.1-0.1-0.1-0.1-0.1c-2.1,3-6.3,1-8.4,3.2C63.1,49.5,63,51.4,64.1,52.2
				L64.1,52.2z"/>
			<path class="st5" d="M67.5,22.9c-0.1,0.3-0.1,0.5-0.1,0.8c0,0,0,0.2,0,0.3l0.1,0.1c0.1,0,0.1,0,0.1,0c0.1-0.1,0.1-0.2,0.1-0.3
				c0-0.3,0.1-0.6,0.1-0.9c0.5-0.9,1.5-1.5,1.5-1.5c2.5-1.7,2.5-4.9,2.4-6c-0.1-0.2-0.1-0.1-0.1,0c-0.1,0.5-0.6,1.5-2.4,3.2
				C67,20.4,67.3,22.3,67.5,22.9L67.5,22.9z"/>
			<path class="st5" d="M39.8,24.5c0.8,1.2,1.7,1.3,1.9,1.3c0.1,0.1,0.2,0.1,0.3,0.1c0,0,0.1,0,0.1-0.1c0-0.1-0.1-0.1-0.1-0.1
				c-0.2,0-0.3-0.1-0.5-0.2c-0.3-0.5-0.9-4.3-3.7-3.1c0,0,0,0,0,0.1l0,0C39,22.8,39,23,39.8,24.5L39.8,24.5z"/>
			<path class="st5" d="M39.8,27.7c1,1,1.9,1.1,2.5,1.1c0.2,0.1,0.5,0.1,0.7,0.1c0.1-0.1,0.2-0.1,0.2-0.1c0-0.2,0-0.3,0-0.5
				c0.3-0.5,1.5-0.8,2.9-2.4c1.5-1.7,0.2-3.5-0.1-3.8l0,0c0,0,0,0,0,0.1c0.1,1.5-0.3,1.6-1.9,3.3c-1.1,1.2-1.2,2.2-1.1,2.8
				c0,0.2-0.1,0.4,0,0.6c-0.2,0-0.4-0.1-0.5-0.2c-0.4-0.4-0.8-1.5-2.2-2.7c-1.7-1.5-3.6-0.3-3.9-0.1 M36.3,25.7L36.3,25.7
				c1.5-0.1,1.8,0.5,3.5,2L36.3,25.7z"/>
			<path class="st5" d="M67.1,19.3c-0.1,0.1-0.1,0.2-0.2,0.3c-0.2,0.3-0.2,0.6-0.1,0.6c0.1,0.1,0.2-0.1,0.2-0.1
				c0.3-0.5,0.6-1,0.9-1.6c0.6-0.5,1.2-1.2,1.6-1.9c1-1.6,0.6-2.9,0.5-3.2c-0.1-0.1-0.1-0.1-0.1,0c-0.1-0.1-0.1-0.1-0.1,0
				c-0.2,0.8-1.1,1-1.9,1.8C67.1,16.4,66.8,17.9,67.1,19.3L67.1,19.3z"/>
			<path class="st5" d="M62.8,16.6c0.2,0.1,0.4,0.2,0.6,0.3c0.1,0,0.1,0,0.1,0c0.1,0,0.1-0.1,0-0.1l0,0c-0.3-0.1-0.5-0.2-0.7-0.3
				c-0.4-0.3-0.8-1.9-0.8-3.1c-0.1-0.9-0.3-1.7-0.6-2.4c0,0,0,0-0.1,0c0,0,0,0,0,0.1c-0.1,1.2-1.8,2.3-0.6,4.4
				C61.3,16.1,61.9,16.5,62.8,16.6L62.8,16.6z"/>
			<path class="st5" d="M47.7,18c0.2,0.1,0.4,0.3,0.5,0.5c0.1,0.3,0.1,0.6,0.2,0.9c0.1,0.1,0.1,0.2,0.1,0.2c0.1,0,0.1,0.1,0.1,0.1
				c0.1,0,0.1-0.2,0.1-0.2c0-0.3-0.1-0.5-0.1-0.8c0-1.1-0.3-3.6-1.9-4.9l0,0l0,0c-0.1,0.2-0.3,1.5-0.2,2.1
				C46.6,16.6,46.9,17.5,47.7,18L47.7,18z"/>
			<path class="st5" d="M43.1,23.8c0.2,0.4,0.4,0.7,0.8,1c0.1,0,0.2,0,0.2-0.1c0.1-0.1,0-0.2-0.1-0.2l0,0c-0.3-0.2-0.5-0.5-0.7-0.8
				c2-0.9,0.1-4-0.5-5.1c-0.3-0.5-0.3-1.1-0.1-1.7c0-0.1,0-0.1-0.1-0.1c-2.8,1.2-2.6,3.3-2.3,4.6C40.8,22.4,41.7,24.4,43.1,23.8
				L43.1,23.8z"/>
			<path class="st5" d="M59.4,33.8c-0.1,0.4-0.1,1.1-0.1,1.2l0,0l0,0c0.9-0.6,1.5-1.5,1.8-2.5c0.3-0.9,0.2-3.6-0.5-4.4
				c-0.3,1.1-0.7,2.2-1.2,3.1c-0.5,0.8-0.6,1.8-0.5,2.8h0.1c0.1-0.8,0.4-1.6,0.8-2.3c0.4-0.7,0.7-1.5,0.9-2.3c-0.1,1-0.3,2-0.8,2.9
				C59.6,33,59.4,33.4,59.4,33.8L59.4,33.8z"/>
			<path class="st5" d="M54,23.5L54,23.5L54,23.5c2.2-3.5-0.4-4.7-0.3-7c0-0.1,0-0.1-0.1,0c-1.5,3.8-0.6,4.6-0.2,7
				c0.1,0.2,0.1,0.4,0.1,0.6l0,0l0,0c0.4-2.3,0.6-1.7,0.2-5.4C54.5,20.7,54.2,21.9,54,23.5L54,23.5z"/>
			<path class="st5" d="M60.7,16.7C60.7,16.7,60.8,16.7,60.7,16.7C60.8,16.7,60.8,16.7,60.7,16.7c-0.6-0.5-1.8-2-1.7-3.6
				c0.1-1.4,0.1-1.6,0.1-1.6c-0.1,0,0.2,0.1,0.1,1.7c-0.1,0.6,0.1,1.1,0.4,1.7c-0.1-0.3-0.1-0.7-0.1-1.1c0.2-1.8-0.3-3-0.5-3.2h-0.1
				c0,0,0,0,0,0.1c0.1,0.9,0.1,1.8-0.3,2.8C58,14.8,58.3,16.6,60.7,16.7L60.7,16.7z"/>
			<path class="st5" d="M36.8,28.6c0.8-0.4,1.7-0.5,2.5-0.4l0,0l0,0c-1.7-1.3-3.9,0.5-3.9,0.5s2.2-2.2,3.9-0.6 M39.4,28.1L39.4,28.1
				c-2.3-2.6-3.7,0.6-4.5,0.7c-0.7,0.1,0.6,0.4,1.9-0.2L39.4,28.1z"/>
			<path class="st5" d="M46.7,22.2c0-0.5-0.1-1.3-1.1-2.4c-1.9-2.1-1.5-3.6-1.5-3.7l0.1-0.1c0,0-0.6,1.4,1.5,3.7
				c1,1,1.2,1.8,1.2,2.4c1.1-3.2-2.5-5.1-2.6-6.4l0,0l0,0c-0.6,1.2-0.5,2.6,0.3,3.7C46,21.1,46,20.8,46.7,22.2L46.7,22.2z"/>
			<path class="st5" d="M64,17.4c0.3-0.8,0.2-1.6-0.2-2.3c-0.8-1.5-0.5-2.5-0.3-2.9c0.1-0.1,0.1-0.1,0,0c-0.1,0.4-0.3,1.3,0.5,2.8
				c0.4,0.8,0.5,1.7,0.3,2.5c1.9-1.8-0.7-4.6-0.5-5.7v-0.1c0,0,0,0-0.1,0l0,0C61.9,14.2,64.1,16.1,64,17.4L64,17.4z"/>
			<path class="st5" d="M52.1,22.2c0.3,0.8,0.4,1.7,0.4,2.5c-0.1-0.1-0.1-0.2-0.2-0.2c-0.3-1.8-2.3-3.4-4-4.5
				c-0.4-0.3-0.6-0.7-0.8-1.2c-0.1-0.1-0.1-0.1-0.1,0c-0.3,1.9,0.3,4.2,1.9,4.8c1.3,0.5,2.3,0.9,2.8,1.1c1,1,0.9,1.3,1.2,1.7
				c0.1,0,0.1,0,0.1,0l0.1-0.1c-0.1-0.4-0.3-0.9-0.6-1.2c-0.1-1.1-0.3-2.2-0.6-3.2c0.3-1.8-0.5-4.3-2.2-6c-0.6-0.6-0.9-1.8-0.9-2
				l0,0l0,0c-1,1.7-0.3,4.9,1,6.1C50.9,20.7,51.6,21.4,52.1,22.2L52.1,22.2z"/>
			<path class="st5" d="M78,24.7C78,24.7,77.9,24.7,78,24.7c0.1,0.6-0.2,1.2-0.6,1.6c-0.9,0.8-3.3,2.3-1.7,4.3l0.1,0.1
				c-0.2,0.2-0.3,0.4-0.6,0.6l0,0c-0.1,0.1-0.1,0.1-0.1,0.2c0.1,0.1,0.1,0.1,0.2,0.1l0,0c0.3-0.2,0.5-0.4,0.6-0.6
				c1.2,0.8,2.3-0.5,2.7-1.2C79.3,28.5,80,26.7,78,24.7L78,24.7z"/>
			<path class="st5" d="M68.1,11.8L68.1,11.8L68.1,11.8c-0.3,0.1-3,1.1-2.3,3.7c0.2,0.5,0.1,1-0.2,1.5
				C65.4,17.2,68.3,14.7,68.1,11.8L68.1,11.8z"/>
			<path class="st5" d="M67.3,26.1c-0.2,0.2-0.3,0.3-0.4,0.4c0,0-0.2,0.2-0.1,0.3c0.1,0.1,0.3-0.1,0.3-0.1c0.2-0.1,0.3-0.3,0.4-0.4
				c0.4,0,1.4-0.2,2.5-1.7c1.3-1.7,1.9-4.1,2-4.6c0-0.1,0-0.1-0.1-0.1c-0.2,0.2-0.9,0.8-1.2,1C70.3,21.2,67.4,22.9,67.3,26.1
				L67.3,26.1z"/>
			<path class="st5" d="M50.5,25.4c0.9,0.4,1.2,0.8,1.7,1.6c0.4,0.6,2,4.4,2.2,4.7c-0.3-1.5-0.6-3.1-0.6-3.1
				c-0.8-3.1-3.9-3.5-3.9-3.5c1.5,1,1.8,2.8,2.3,4.9c0.4,1.7,1.9,2.2,2.4,2.3C53,30.2,52.6,26.5,50.5,25.4
				C50.3,25.2,50.4,25.3,50.5,25.4L50.5,25.4z"/>
			<path class="st5" d="M37.1,39.2c0.7-0.1,1.4-0.2,2-0.4c0.6-0.2,1.2-0.5,1.7-0.9l0,0c0,0-1.3-0.3-2,0.2c-0.8,0.4-2.4,1.1-3,1
				c0,0-0.1,0,0,0.1c0.7,0.3,4.2,1.6,5.2-1.1c-0.5,0.4-1.1,0.8-1.7,1C38.5,39.2,37.8,39.3,37.1,39.2L37.1,39.2z"/>
			<path class="st5" d="M55.7,56.5c4-2.8,4.3-12.3,4.5-12.8c0.1-0.6,0.5-3.7,5.8-4c0.2,0,2.2,0.1,3.3,1.2c-0.3-0.2-0.6-0.2-1-0.1
				l0,0l0,0c0.3,0.1,0.6,0.2,0.8,0.3c0,0-0.9,0.7-0.2,1.9c0.9,1.5,2.1,0.6,2.1,0.6c0.1,0.2,0.5,0.3,0.4,0.2
				c-0.1-0.1-0.2-0.2-0.1-0.3c0.1,0.1,0.3,0.3,0.3,0.2c-0.2-0.2-0.2-0.4-0.2-0.5c0.4-0.4,1.1-1.1,0.3-2.2C71,39.7,70,40.3,70,40.3
				c-0.4-0.2-0.5-0.8-0.6-0.9l0,0l0,0c-0.2,0.2,0.2,1.1,0.2,1.1c-0.2-0.2-0.3-0.3-0.4-0.5l0,0l0,0c-0.1,0.1,0,0.3,0.1,0.5
				c-0.6-0.5-1.4-0.9-2.2-1.1c0.6-0.2,1.2-0.4,1.8-0.7c1.8-0.5,3.2-0.8,4.4-2.2c-0.1,0.1-0.8,1.6-4.4,2.4c3.5,1.7,5.3-3.7,5-3.2
				c-0.3,0.5-2.3,1.3-3.3,1.5c-0.8,0.2-1.5,1-1.7,1.3c-2.5,1.2-7.4-0.1-8.9,4.1c0.4-1.6,1.8-2.9,3.1-3.8c4.2,0.5,6.9-2.9,7.1-3.1
				l0,0l0,0c-3.2-0.4-5.9,1.5-7.1,3.1c-1,0.5-1.9,1.2-2.8,2c0,0,0.3-1.7,2.9-3.1c1.1-0.5,2.2-1.2,3.1-2.2c0.2-0.1,1.8-0.8,2.7-1.1
				c1.2,0.2,1.5,0.7,3.1,0.6c2.8-0.3,3.8-2.7,3.5-2.4c-0.3,0.3-1.2,0.4-3.3,0.5c-1.1,0.1-2.2,0.4-3.1,1c-0.9,0.3-1.7,0.5-2.4,0.9
				c0.5-0.6,0.9-1.3,1-2.1c0.7-0.9,1.6-1.5,2.6-1.8c-1,0.4-1.8,1.2-2.5,2.1c2-1.2,5.2-0.6,6.3-3.7c0.1-0.1,0.1-0.2,0.1-0.2
				c0.1-0.3,0.1-0.2-0.1-0.1c-1,1-4.6-0.4-6.2,2.9c0.2-0.4,0.8-2,1.1-2.3c2-1.5,7.3-0.6,7.7-5.9c0-0.1-0.1-0.1-0.1,0
				c-0.3,0.5-2.2,1.5-5.3,2.8c-1.2,0.5-2,1.9-2.2,2.3c-0.6,0.9-1.3,2.6-1.7,3.7c-0.2,0.6-0.5,1.3-0.9,1.9c-1.9,2.8-5.8,3.3-6.6,5.7
				c-0.1-0.4,0-0.9,0.1-1.3c0.2-0.5,0.5-0.9,0.9-1.2c0.2-0.1,0.7-0.3,1.7-0.8c1.4-0.5,3.5-2.4,4.5-5.7c0.1-0.1-1.7,1.3-2.9,1.9
				c-1.3,0.6-2.3,1.5-3.2,4c-0.3,0.3-0.6,0.6-0.9,1c0.3-1.6,1-3.9,2.9-5.4c0.1-0.1,0.2-0.2,0.3-0.3c2.2-0.8,3.1-1.2,4.2-2.3
				c1.3-1.3,1.3-3.6,1.3-3.6c-3.3,1-4.4,4-5.5,5.7c-1.8,1.1-3.6,3.8-4.1,6c0,0-0.1-0.3-0.1-0.6c1.2-4,2.8-4.7,3.6-6.4
				c2.3-3.1,0.6-5.4,1.2-7.5c0,0-2.3,1.6-2.6,3.3c-0.3,1.8,1,3.8,0.6,4.7c-0.5,0.7-2.5,3.1-3,5.2c-0.2-1-0.3-2-0.3-3
				c0-0.1-0.1-0.1-0.1,0c-0.5,3.3,0.2,4.7,0.2,9.4c-0.1-4.4-1-7-0.8-9.2c0.1-1.2,1.1-4.9,1.2-5.4c0.1-0.2,0.1-0.5,0.2-0.9l0,0
				c2.5-2.9-1.1-6.6-1.9-7.3c-0.1-0.1-0.1,0-0.1,0.1c0.7,1.4-0.2,4.5,0.6,6.3c0.3,0.6,0.6,1.2,0.9,1.8c0,0.1-0.1,0.1-0.1,0.2
				c-0.9,3.3-1.5,5.2-1.6,7.3c-0.3-0.5-0.5-1-0.6-1.6c0.1-0.6,0.3-1.3,0.5-1.9c0.4-1.1,1.5-2.5,0.9-4.6c-0.6-2-1.2-1.9-1.2-1.9
				s0.5,0.4-0.6,2.7c-1.2,2.3,0.3,7.1,1.1,7.8c-0.1,2.2,0.8,5.3,0.4,9.7c0.2-2.6,0.1-5.1-0.5-7.7c-0.3-1.5-1.5-3.6-2-6.1
				c-0.3-1.5-0.3-2.9-0.1-4.4c0.2-0.6,0.5-1.7,1.2-3.3c0.9-2.2-0.2-4.6-0.4-5.2c-0.1-0.1-0.1-0.1-0.1,0c0.1,1.1-0.5,2.5-1.6,4.7
				c-1.1,2.2,0.3,4.7,0.5,4.9c-0.1,0.7-0.1,1.5,0.1,2.2c0.2,2.6,1.2,5.4,1.3,5.7c0.1,0.5,3.5,11.5-2.9,19
				C54.1,56.3,54.9,56.4,55.7,56.5L55.7,56.5L55.7,56.5z M63,38.9L63,38.9L63,38.9z"/>
			<path class="st5" d="M61.6,24.1c-0.3,0.6-0.5,1.2-0.6,1.8V26l0.1,0.1h0.1c0.1,0,0.1-0.1,0.1-0.2c0.1-0.6,0.3-1.2,0.5-1.8
				c0.5-0.4,1.6-0.4,3.2-1.8c1.3-1.1,1.3-2.6,1.2-3.6c-0.1-0.2-0.2-0.6-0.2-0.8c0-0.1-0.1,0-0.1,0c-0.8,1.5-1.2,1.4-2.9,2.8
				C61.8,21.8,61.6,23.5,61.6,24.1L61.6,24.1z"/>
			<path class="st5" d="M40.9,29.8c0.2,0,0.4,0,0.6-0.1c0,0,0.2,0,0.2-0.1s-0.2-0.1-0.2-0.1c-0.2,0-0.3,0-0.5,0
				c-4.5-2.5-5.9,1.7-7.1,1.7C33.3,31.3,37.4,32.9,40.9,29.8L40.9,29.8z"/>
			<path class="st5" d="M56.2,38.8c-0.5-1.9-0.5-2.3-1.1-3.1c-0.3-1.1-0.5-1.9-1-2.5c-0.4-0.5-1-1-1.7-1.2c-0.3-0.2-0.5-0.4-0.8-0.6
				c0,0-0.2-1.7-1.1-2.6c-0.6-0.6-0.9-1.4-1.1-2.3c-0.6,0.5-0.9,3.5,1.9,4.8c0.3,0.3,0.5,0.5,0.8,0.7c-1.1-0.3-1.3,0.1-2.9-1.2
				c-0.1-0.1-0.1-0.1-0.1,0c1.2,3.6,5,3,5.9,5.8c-1.6-0.6-3.3-1-5-1.2C50,35.2,50,35.1,50,35c0.5-2.3-2-4.4-2.5-4.7
				c-0.1-0.1-0.1,0-0.1,0.1c0.6,1.4,0,1.9,1,3.3c-0.3-0.2-1-0.4-1-0.4c-1.6-2-4.9-1.5-4.3-1.3c0.8,0.2,2.8,3.1,4.5,1.5
				c0.4,0.1,0.7,0.3,1,0.5c0.4,0.4,0.8,0.8,1.3,1.2c0.1,0.1,0.1,0.2,0.1,0.2c-0.8-0.1-1.6,0-2.3,0.1c-0.2-0.2-0.5-0.3-0.8-0.4
				c-0.2-0.4-1.3-1.2-2.8-1.2c-0.1-0.1-0.2-0.2-0.3-0.3c-0.4-0.5-2.4-1.4-4.4-1.1c-0.8-0.2-1.7-0.1-2.3,0.4c-1.5,1.1-0.6,2.2-2,2.9
				 M35,35.7L35,35.7c0.2,0.1,0.7,0.2,2-0.3c1.4-0.4,1.6-2.2,2.3-2.7c0,0-0.1,0-0.1,0.1c-1.1,0.5-1.3,0.8-2.2,1.6
				c-1.2,1.2-1.7,1.2-1.7,1.2s0.5-0.1,2.4-2.2c0.4-0.4,0.9-0.8,1.5-0.9c1.1,0,2.2,0.2,3.2,0.5c-0.4,0.1-0.8,0.2-1.2,0.4
				c-2.1,1.1-2.2,3.4-4.3,3.9l0,0l0,0c1.1,0.2,2.3,0.1,3.4-0.3c1.6-0.6,2.1-2.3,3-2.9c1-0.2,2.1,0.1,2.9,0.7
				c-0.6-0.1-1.3,0.1-1.9,0.4c-2.1,1.1-1.2,2.9-3.3,3.3l0,0l0,0c0.2,0.1,1.2,0.5,3-0.2c1.6-0.6,2.2-2.1,3.1-2.6
				c0.9-0.2,1.7-0.2,2.6-0.2c-0.8,0.6-1.4,1.3-1.9,2.2c-0.9-0.5-1.8,0.2-2.5,1c-0.3,0.4-0.8,0.7-1.3,0.7l0,0l0,0
				c0.4,0.5,0.8,0.7,1.2,0.6c-0.2,0.3-0.3,0.5-0.4,0.8l0,0l0,0c0.3-0.1,0.6-0.1,0.8-0.3c-0.1,0.3-0.2,0.5-0.2,0.8l0,0l0,0
				c0.3-0.1,0.6-0.3,0.8-0.5c0,0.3,0,0.6,0.1,0.9l0,0l0,0c0.2-0.2,0.4-0.4,0.5-0.6c0.1,0.5,0.3,0.9,0.8,1c0.1,0.1,0.1-0.1,0.1-0.1
				c-0.4-0.5,0-0.9,0.3-1.6c0.4-0.9,0.9-2.2-0.1-2.9c0.6-0.8,1.4-1.6,2.3-2.2c1.5,0.1,3.8,0.6,5,2.2c0.1,0.2,0.2,0.4,0.3,0.5
				c3.2,11.1-3,17.6-3,17.6l0.6,0.1c2.1-1.8,5.5-8.7,3.3-17.3L35,35.7z"/>
			<path class="st5" d="M64.9,28.2c0.1,0.1,0.2-0.1,0.2-0.1c0.1-0.2,0.2-0.4,0.3-0.6c2.9-2.6,1.5-5.9,1.5-5.9
				c-0.2,1-0.7,1.3-1.7,2.9c-0.9,1.4-0.3,3-0.1,3.3c-0.1,0.1-0.1,0.2-0.2,0.3C64.9,27.9,64.8,28.1,64.9,28.2L64.9,28.2z"/>
			<path class="st5" d="M54.8,17.2L54.8,17.2L54.8,17.2c0.2-0.2,0.1-0.3,0.1-0.8c0.3-0.6,3.7-1.7,2.1-5.9l0,0c-0.1,0-0.1,0-0.1,0.1
				c-0.9,3-3,3-2.3,5.7C54.7,16.5,54.7,16.8,54.8,17.2L54.8,17.2z"/>
			<path class="st5" d="M51.3,16.9L51.3,16.9C51.3,16.9,51.3,16.9,51.3,16.9C51.3,16.9,51.3,16.9,51.3,16.9c0-0.1,0-0.2,0-0.2
				c-0.2-0.2-0.3-0.4-0.3-0.6c0.1-0.7,1.2-2.6,0.5-3.9c-0.5-0.9-0.6-1.1-0.6-1.1l0,0l0,0c-0.2,0.8-0.4,1.5-0.8,2.2
				c-0.5,1.1,0.5,2.5,0.8,2.9C50.9,16.4,51.1,16.7,51.3,16.9L51.3,16.9z"/>
			<path class="st5" d="M70.4,26c-0.2,0.2-0.3,0.5-0.5,0.8v0.1v0.1H70c0.1,0,0.1,0,0.1-0.1c0.2-0.3,0.3-0.5,0.5-0.8
				c0.5-0.2,0.9-0.6,2-0.7c1-0.1,2.3-0.1,3.5-1.7c0.9-1.2,1-1.8,1-1.9c0-0.1-0.1-0.1-0.1,0c-0.2,0.2-0.9,0.9-2.8,1.1
				C72.2,23,70.7,25.2,70.4,26L70.4,26z"/>
			<path class="st5" d="M52.3,18.3L52.3,18.3C52.3,18.3,52.3,18.3,52.3,18.3c0.2-0.2,0.1-0.4,0-0.6c0.1-0.6,0.9-1.5,1.7-3
				c0.9-1.6-0.1-3.3-0.3-3.7h-0.1c0,0-0.1,0-0.1,0.1c-0.4,2.7-2.8,2.6-1.6,6.3C52.1,17.6,52.2,17.9,52.3,18.3L52.3,18.3z"/>
			<path class="st5" d="M72.4,21.7c-0.2,0.4-0.5,0.8-0.8,1.2l-0.1,0.1V23l0.1,0.1c0.1,0,0.1,0,0.1,0c0.3-0.3,0.6-0.9,0.8-1.3
				c0.9,0.5,1.7,0,2.5-0.8c0.3-0.4,0.9-0.5,1.3-0.5h0.1l0,0c-0.3-0.5-0.6-0.7-1-0.7c0.2-0.2,0.3-0.4,0.4-0.7l0,0c0,0,0,0-0.1,0
				c-0.3,0-0.6,0.1-0.8,0.2c0.1-0.3,0.2-0.5,0.3-0.8l0,0c-0.1,0-0.1,0-0.1,0c-0.3,0.1-0.6,0.2-0.9,0.4c0.1-0.3,0.1-0.5,0.1-0.9l0,0
				h-0.1c-0.3,0.1-0.4,0.3-0.6,0.5c0-0.5-0.2-0.9-0.6-1h-0.1l0,0c0.3,0.5-0.2,0.8-0.5,1.5C72.3,19.8,71.5,20.9,72.4,21.7L72.4,21.7z
				"/>
		</g>
	</g>
	<g>
		<path class="st1" d="M42.1,63c-0.6,0-1.1,0.5-1.1,1.1s0.5,1.1,1.1,1.1s1.1-0.5,1.1-1.1c0-0.1,0-0.2-0.1-0.3
			C43,63.3,42.5,63,42.1,63L42.1,63z M81.8,63C81.5,63,81.3,63,81,63c-1,0-1.5,0.4-1.5,1.2v9.7c0.3,0.1,0.5,0.1,0.8,0.1
			c0.9,0,1.3-0.4,1.3-1.2L81.8,63L81.8,63z M44.8,73.9c0.3,0.1,0.5,0.1,0.8,0.1c0.9,0,1.3-0.4,1.3-1.2v-3.9c0-0.8,1.2-1.4,2.4-0.5
			c0.3-0.5,0.5-1,0.5-1.6c0-0.9-1.9-1.3-3,0.2c-0.2-0.8-1.2-0.9-2.1-0.8L44.8,73.9L44.8,73.9L44.8,73.9z M67.8,69.8
			c0.1-0.5,0-1-0.1-1.5c-0.3-0.9-2.3-0.6-2.3,0.3v4.2c0,0.8-0.4,1.2-1.3,1.2c-0.3,0-0.5,0-0.8-0.1v-4.1c0.1-0.5,0-1-0.1-1.5
			c-0.3-0.9-2.3-0.6-2.3,0.3v4.2c0,0.8-0.4,1.2-1.3,1.2c-0.3,0-0.6,0-0.9-0.1v-7.8c0.9-0.1,1.9-0.1,2.1,0.8c0.9-1.2,3.8-1.5,4.4,0.3
			c0.6-1,1.7-1.5,2.8-1.3c1.9,0.2,2,1.7,2.1,3.6v3.2c0,0.8-0.4,1.2-1.3,1.2c-0.3,0-0.5,0-0.8-0.1L67.8,69.8L67.8,69.8z M43.1,72.8
			c0,0.8-0.4,1.2-1.3,1.2c-0.3,0-0.5,0-0.8-0.1v-6.5c0-0.8,0.4-1.2,1.3-1.2c0.3,0,0.6,0,0.9,0.1L43.1,72.8L43.1,72.8z M34.6,68.5
			v-3.9c1.5-0.2,2.9,0.2,2.9,1.8C37.5,68.4,36,68.5,34.6,68.5L34.6,68.5z M35.3,63h-2.9v10.9c0.3,0.1,0.5,0.1,0.8,0.1
			c0.9,0,1.3-0.4,1.3-1.2v-2.8h0.8c2.5,0,4.3-1.1,4.3-3.8C39.7,63.8,37.6,63,35.3,63L35.3,63L35.3,63z M54.9,72
			c-0.4,0.4-0.9,0.6-1.5,0.6c-1.3,0-1.4-1.5-0.6-2c0.6-0.3,1.3-0.5,2.1-0.4L54.9,72L54.9,72z M57,69c0-2.2-1-3-3.1-3
			c-1.6,0-3.1,0.6-3.1,1.2c0.1,0.4,0.2,0.8,0.5,1.1c0.7-0.4,1.5-0.7,2.3-0.8c1.3,0,1.4,0.6,1.4,1.4c-2.3,0-4.6,0.5-4.6,2.7
			c0,1.5,0.9,2.4,2.4,2.4c0.9,0,1.7-0.3,2.4-0.8c0.3,0.9,1.6,0.8,2.3,0.5c-0.3-0.4-0.3-0.9-0.3-1.8L57,69L57,69z M75.9,72
			c-0.4,0.4-0.9,0.6-1.5,0.6c-1.3,0-1.4-1.5-0.6-2c0.6-0.3,1.3-0.5,2.1-0.4L75.9,72L75.9,72z M78,69c0-2.2-1-3-3.1-3
			c-1.6,0-3.1,0.6-3.1,1.2c0.1,0.4,0.2,0.8,0.5,1.1c0.7-0.4,1.5-0.7,2.3-0.8c1.3,0,1.4,0.6,1.4,1.4c-2.3,0-4.6,0.5-4.6,2.7
			c0,1.5,0.9,2.4,2.5,2.4c0.9,0,1.7-0.3,2.4-0.8c0.3,0.9,1.6,0.8,2.3,0.5c-0.3-0.6-0.4-1.2-0.3-1.8L78,69L78,69L78,69z"/>
		<path class="st5" d="M13.1,93.3c1.1,0,1.9-0.9,1.9-1.9v-6.8c0-0.2,0-0.3,0.2-0.4c1-0.2,2-0.4,3.1-0.5c1.3-0.2,2-0.8,2-1.7
			c0-1-0.8-1.8-1.8-1.8c-0.1,0-0.1,0-0.2,0c-1.1,0.1-2.2,0.5-3.1,1.1l-0.4,0.2c-0.3-0.8-1-1.2-1.8-1.2c-1.1,0-1.9,0.9-1.9,1.9v9.2
			C11.2,92.4,12,93.3,13.1,93.3L13.1,93.3z M27.4,93.4c1.5,0.1,3-0.3,4.3-1c1-0.5,1.3-1.2,1.3-1.7c0.1-0.8-0.5-1.5-1.3-1.5
			c-0.1,0-0.1,0-0.2,0c-1,0-2.3,0.9-3.9,0.9c-1.8,0-2.9-0.9-3.1-2.1h7.3c1.1,0,1.6-0.5,1.6-1.7c0-3.5-2.8-6.2-6.1-6.3
			c-0.1,0-0.1,0-0.2,0c-3.7,0-6.5,2.7-6.5,6.7c-0.1,1.8,0.6,3.6,1.9,4.9C23.8,92.8,25.3,93.4,27.4,93.4L27.4,93.4L27.4,93.4z
			 M24.6,85.4c0.2-1.2,1.3-2.2,2.6-2.1c1.2-0.1,2.4,0.8,2.5,2.1H24.6z M40.9,93.3c1.5,0,2.4-1,3.1-2.6l3-7c0.3-0.5,0.5-1.1,0.5-1.7
			c0-1-0.8-1.8-1.8-1.8c0,0-0.1,0-0.1,0c-0.9,0-1.5,0.5-1.9,1.7l-1.3,3.3c-0.5,1.3-1,2.7-1.4,4.1c-0.4-1.4-0.9-2.8-1.5-4.2L38.2,82
			c-0.5-1.2-1.1-1.7-2-1.7c-1-0.1-1.8,0.8-1.9,1.7c0,0.1,0,0.1,0,0.1c0.1,0.6,0.3,1.2,0.6,1.8l3.1,6.8
			C38.6,92.4,39.5,93.3,40.9,93.3L40.9,93.3z M53.9,93.4c1.1,0,2.1-0.3,3-0.9l0.8-0.4c0.3,0.7,1,1.1,1.8,1.1c1.1,0,1.9-0.9,1.9-1.9
			v-9.2c0-1.1-0.9-1.9-1.9-1.9c-0.8,0-1.5,0.4-1.8,1.1c-1-0.8-2.3-1.3-3.6-1.3c-3.1,0-5.7,2.7-5.7,6.7
			C48.3,90.8,50.6,93.5,53.9,93.4L53.9,93.4L53.9,93.4z M55,89.9c-1.9,0-2.8-1-2.8-3.1s0.9-3.2,2.8-3.2c0.8,0,1.6,0.2,2.3,0.5
			c0.2,0.1,0.2,0.2,0.2,0.4V89c0,0.2-0.1,0.4-0.2,0.4C56.6,89.7,55.8,89.9,55,89.9L55,89.9z M66.2,93.3c1.1,0,1.9-0.9,1.9-1.9v-6.8
			c0-0.2,0-0.3,0.2-0.4c0.7-0.2,1.4-0.3,2.2-0.3h0.1c0.9,0,1.4,0.2,1.7,0.5c0.3,0.3,0.4,0.8,0.4,1.2v6c-0.1,1.1,0.7,2,1.8,2
			c1.1,0.1,2-0.7,2-1.8c0-0.1,0-0.2,0-0.3v-6.2c0.3-2.6-1.7-4.9-4.3-5.2c-0.2-0.1-0.4-0.1-0.7,0c-1.1,0-2.3,0.4-3.2,1l-0.4,0.2
			c-0.5-1-1.6-1.3-2.6-0.9c-0.6,0.3-1.1,1-1.1,1.7v9.2C64.3,92.4,65.1,93.3,66.2,93.3L66.2,93.3z M84.8,93.4c1.2,0,2.5-0.3,3.6-1
			c0.5-0.3,0.9-0.8,0.9-1.4c0.1-0.8-0.6-1.5-1.3-1.5h-0.1c-0.8,0-1.7,0.5-2.5,0.5c-0.6,0.1-1.2-0.4-1.2-1c0-0.1,0-0.2,0-0.3v-5.4
			h2.9c0.8,0,1.5-0.6,1.5-1.5c0-0.8-0.7-1.5-1.5-1.5H84v-2.5c0-1.1-0.9-1.9-1.9-1.9c0,0,0,0-0.1,0c-1.1,0-1.9,0.9-1.9,1.9l0,0v2.5
			h-1c-0.8,0-1.5,0.7-1.5,1.5c0,0.8,0.7,1.5,1.5,1.5h1v5.3c0,1.7,0.4,2.9,1.2,3.7C82.1,93.1,83.3,93.4,84.8,93.4L84.8,93.4z
			 M95.6,93.4c1.1,0,2.1-0.3,3-0.9l0.8-0.4c0.3,0.7,1,1.1,1.8,1.1c1.1,0,1.9-0.9,1.9-1.9v-9.2c0-1.1-0.9-1.9-1.9-1.9
			c-0.8,0-1.5,0.4-1.8,1.1c-1-0.8-2.3-1.3-3.6-1.3c-3.1,0-5.8,2.6-5.8,6.7C89.9,90.8,92.3,93.5,95.6,93.4L95.6,93.4L95.6,93.4z
			 M96.6,89.9c-1.9,0-2.8-1-2.8-3.1s0.9-3.2,2.8-3.2c0.8,0,1.6,0.2,2.3,0.5c0.2,0.1,0.2,0.2,0.2,0.4V89c0,0.2-0.1,0.4-0.2,0.4
			C98.1,89.7,97.4,89.9,96.6,89.9L96.6,89.9L96.6,89.9z"/>
	</g>
</g>
<g>
	<rect x="113.4" y="7.3" class="st1" width="1" height="89.3"/>
</g>
</svg>
